<svg width="486" height="487" viewBox="0 0 486 487" fill="none" xmlns="http://www.w3.org/2000/svg">
<g clip-path="url(#clip0_931_15091)">
<path d="M21.6262 328.426C70.7274 442.403 200.339 491.36 301.893 483.013C329.622 480.733 385.41 476.149 428.973 435.237C512.628 356.672 499.744 192.448 419.662 95.7621C409.348 83.3127 337.963 -0.108695 226.724 1.00768C145.279 1.82404 88.1148 47.5136 81.1633 53.2054C72.383 60.3956 53.0145 77.4831 35.5606 104.59C-5.4516 168.285 -9.05684 257.201 21.6262 328.426Z" fill="url(#paint0_linear_931_15091)"/>
<g opacity="0.3">
<path opacity="0.3" d="M119.06 42.6364C118.411 43.3795 117.28 43.4563 116.537 42.8091C115.089 41.5515 113.567 40.3391 112.009 39.2036C111.222 38.6297 111.043 37.5325 111.601 36.7406L111.621 36.7127C112.203 35.9172 113.323 35.7445 114.122 36.3272C115.761 37.522 117.364 38.7989 118.887 40.1228C119.584 40.7281 119.696 41.7521 119.176 42.4899C119.141 42.5405 119.102 42.5911 119.06 42.6382V42.6364ZM104.048 34.1956C102.35 33.2833 100.598 32.4338 98.8378 31.6715C97.933 31.279 97.5164 30.2289 97.9102 29.3254C98.3092 28.42 99.3576 28.0084 100.264 28.4009C102.116 29.2033 103.96 30.0964 105.747 31.0557C106.617 31.5232 106.941 32.6047 106.472 33.4717C106.439 33.5345 106.4 33.5955 106.36 33.6513C105.845 34.3805 104.855 34.6282 104.048 34.1938V34.1956ZM89.9682 28.5422C88.1148 28.0293 86.2159 27.5932 84.3258 27.2409C83.3545 27.0612 82.714 26.1297 82.896 25.1616C83.078 24.1953 84.0108 23.5551 84.9821 23.7365C86.9737 24.1063 88.9741 24.5685 90.9255 25.1075C91.8775 25.3709 92.4358 26.353 92.1716 27.3019C92.1156 27.5043 92.0263 27.6892 91.9126 27.8514C91.4908 28.4514 90.719 28.7515 89.9699 28.5439L89.9682 28.5422ZM74.9732 26.1698C73.0498 26.0826 71.1002 26.0791 69.1786 26.1576C68.1915 26.1978 67.3584 25.432 67.3182 24.4482C67.2797 23.4644 68.0462 22.6358 69.0333 22.5939C71.0564 22.512 73.1093 22.5154 75.1342 22.6062C76.1213 22.6498 76.8861 23.4836 76.8406 24.4674C76.8248 24.8197 76.7076 25.1424 76.5185 25.4111C76.179 25.8925 75.6085 26.196 74.9732 26.1681V26.1698ZM59.8224 27.1851C57.9323 27.5252 56.0299 27.9526 54.1678 28.4532C53.214 28.7096 52.2322 28.1462 51.9749 27.1955C51.7177 26.2449 52.2829 25.2663 53.2368 25.0099C55.1951 24.4831 57.1973 24.0348 59.1854 23.6754C60.1567 23.4993 61.0878 24.1429 61.2645 25.1128C61.3538 25.6012 61.233 26.0791 60.9688 26.4559C60.708 26.8257 60.3055 27.0978 59.8242 27.1851H59.8224ZM45.2737 31.5163C43.5026 32.2663 41.7437 33.1019 40.0426 33.9985C39.1693 34.459 38.086 34.1275 37.6257 33.2571C37.1637 32.3867 37.4962 31.3087 38.3695 30.8464C40.1599 29.901 42.0115 29.0236 43.8754 28.2334C44.7854 27.8479 45.8355 28.27 46.2223 29.1771C46.4726 29.7649 46.3816 30.4138 46.0385 30.9005C45.853 31.1639 45.594 31.3802 45.2755 31.5145L45.2737 31.5163ZM3.0732 82.6429C2.10189 82.4615 1.4631 81.5283 1.64511 80.5619C2.01963 78.5804 2.48691 76.5866 3.0312 74.6381C3.29722 73.6892 4.28428 73.1363 5.23459 73.4014C6.18491 73.6665 6.74144 74.6486 6.47543 75.5975C5.95739 77.4465 5.51461 79.3392 5.15934 81.2213C5.11034 81.4795 5.00883 81.7132 4.86532 81.9155C4.47504 82.4702 3.782 82.7772 3.0697 82.6429H3.0732ZM32.0604 38.9506C30.5028 40.074 28.9749 41.2776 27.5188 42.53C26.7715 43.1737 25.6409 43.09 24.9951 42.3451C24.3494 41.6003 24.4351 40.4769 25.1807 39.8298C26.7138 38.5111 28.3221 37.2429 29.9637 36.0603C30.7635 35.4829 31.8818 35.6626 32.4611 36.4597C32.9197 37.0929 32.9022 37.925 32.4751 38.5303C32.3649 38.6872 32.2249 38.8303 32.0586 38.9489L32.0604 38.9506ZM7.27873 67.6817C6.37392 67.2875 5.96089 66.2374 6.35642 65.3338C7.16672 63.4866 8.06803 61.648 9.03409 59.8705C9.50137 59.0019 10.5899 58.6844 11.4598 59.1519C12.3278 59.6211 12.6498 60.7026 12.1808 61.5695C11.262 63.2581 10.4062 65.0041 9.63613 66.7607C9.58713 66.8723 9.52763 66.977 9.45937 67.0729C8.97984 67.7515 8.07328 68.0253 7.28048 67.68L7.27873 67.6817ZM20.8456 49.1411C19.5803 50.5819 18.3605 52.0978 17.2194 53.645C16.6348 54.4387 15.5148 54.6096 14.7185 54.027C13.9327 53.4514 13.7559 52.3577 14.3142 51.5657C14.3212 51.5553 14.3282 51.5448 14.3369 51.5343C15.5358 49.9051 16.8204 48.3108 18.1522 46.7932C18.8032 46.0519 19.9338 45.9769 20.6776 46.6257C21.3724 47.231 21.4827 48.255 20.9646 48.9911C20.9279 49.0434 20.8876 49.0923 20.8456 49.1411Z" fill="#3E33EE"/>
<path opacity="0.3" d="M3.67176 94.379C3.87478 94.0912 3.99379 93.7423 3.99554 93.3638C3.99904 92.4445 4.02354 91.5095 4.06554 90.5868C4.11104 89.603 3.34624 88.7692 2.36093 88.7256C1.37386 88.6802 0.535557 89.4407 0.493555 90.4263C0.448052 91.3979 0.42355 92.38 0.4183 93.3481C0.413049 94.3319 1.2111 95.1343 2.19817 95.1395C2.80721 95.143 3.34624 94.8412 3.67176 94.3807V94.379Z" fill="#3E33EE"/>
</g>
<g opacity="0.3">
<path opacity="0.3" d="M24.7221 144.522C25.2192 143.817 25.1439 142.838 24.5051 142.219C23.8436 141.579 23.1855 140.912 22.5467 140.241C21.8677 139.526 20.7354 139.494 20.0178 140.173C19.2968 140.853 19.2705 141.978 19.9496 142.693C20.6216 143.4 21.3147 144.101 22.0112 144.776C22.72 145.462 23.8523 145.446 24.5401 144.741C24.6084 144.672 24.6679 144.598 24.7221 144.522Z" fill="#3E33EE"/>
<path opacity="0.3" d="M128.194 137.577C127.587 138.354 126.463 138.493 125.683 137.888C124.904 137.283 124.764 136.165 125.371 135.387C126.526 133.907 127.636 132.357 128.684 130.759C129.22 129.937 130.333 129.703 131.161 130.242C131.987 130.781 132.219 131.886 131.679 132.711C131.225 133.403 130.762 134.085 130.287 134.755C129.612 135.713 128.908 136.662 128.192 137.577H128.194ZM134.064 125.081C133.172 124.659 132.792 123.595 133.215 122.707C134.029 120.999 134.778 119.239 135.443 117.474C135.788 116.553 136.822 116.085 137.746 116.431C138.67 116.776 139.139 117.805 138.791 118.726C138.091 120.584 137.302 122.437 136.446 124.235C136.402 124.327 136.35 124.416 136.292 124.497C135.8 125.194 134.862 125.458 134.062 125.081H134.064ZM121.694 144.816C120.268 146.2 118.765 147.543 117.221 148.806C116.458 149.43 115.331 149.32 114.703 148.56C114.076 147.799 114.188 146.676 114.949 146.05C116.414 144.851 117.844 143.576 119.197 142.263C119.906 141.575 121.038 141.591 121.728 142.296C122.337 142.92 122.396 143.875 121.911 144.564C121.848 144.652 121.777 144.738 121.694 144.818V144.816ZM139.449 110.763C138.485 110.547 137.879 109.593 138.098 108.632C138.515 106.79 138.858 104.909 139.117 103.041C139.251 102.064 140.154 101.384 141.133 101.518C142.111 101.653 142.795 102.553 142.659 103.528C142.386 105.495 142.025 107.477 141.588 109.415C141.535 109.649 141.437 109.863 141.308 110.048C140.904 110.622 140.179 110.926 139.449 110.762V110.763ZM109.288 154.437C107.592 155.473 105.829 156.453 104.046 157.346C103.164 157.789 102.089 157.435 101.645 156.556C101.2 155.677 101.556 154.604 102.439 154.161C104.134 153.311 105.808 152.382 107.419 151.398C108.26 150.883 109.363 151.147 109.879 151.986C110.264 152.612 110.215 153.379 109.818 153.945C109.681 154.138 109.505 154.307 109.289 154.438L109.288 154.437ZM95.0645 161.11C93.1779 161.754 91.2422 162.326 89.3119 162.811C88.3528 163.052 87.3815 162.473 87.14 161.517C86.8985 160.561 87.4795 159.593 88.4386 159.354C90.2727 158.893 92.112 158.349 93.9042 157.739C94.8387 157.419 95.8555 157.916 96.1758 158.848C96.3683 159.41 96.2633 160.001 95.9465 160.451C95.7365 160.749 95.4338 160.985 95.0627 161.112L95.0645 161.11ZM79.7195 164.536C77.7366 164.756 75.7222 164.894 73.7323 164.948C72.7453 164.974 71.9227 164.198 71.8965 163.214C71.8702 162.228 72.649 161.41 73.6361 161.384C75.5262 161.334 77.4408 161.201 79.3257 160.993C80.3075 160.885 81.1913 161.59 81.2998 162.569C81.3506 163.019 81.2281 163.446 80.9866 163.79C80.7013 164.194 80.2515 164.479 79.7195 164.538V164.536ZM63.9894 164.545C62.0066 164.327 60.0097 164.022 58.0548 163.638C57.0852 163.448 56.4552 162.511 56.646 161.545C56.8367 160.58 57.7783 159.95 58.7461 160.141C60.6012 160.505 62.4983 160.795 64.3815 161.002C65.3633 161.11 66.0721 161.991 65.9636 162.97C65.9286 163.279 65.8183 163.561 65.6503 163.798C65.288 164.313 64.6615 164.62 63.9894 164.547V164.545ZM48.6339 161.107C46.7526 160.46 44.8747 159.725 43.0493 158.921C42.1463 158.524 41.7367 157.47 42.1375 156.57C42.5365 155.671 43.5936 155.262 44.4967 155.661C46.2293 156.425 48.0144 157.125 49.8013 157.739C50.7341 158.06 51.2311 159.075 50.9091 160.004C50.8531 160.167 50.7761 160.315 50.6816 160.449C50.2353 161.082 49.4057 161.374 48.6339 161.109V161.107ZM34.4265 154.398C33.1769 153.632 31.9361 152.818 30.739 151.979C30.305 151.675 29.8762 151.366 29.4509 151.056C28.6564 150.473 28.4621 149.355 29.0711 148.563C29.6557 147.77 30.7758 147.6 31.5721 148.183C31.9763 148.48 32.3841 148.773 32.7954 149.06C33.9347 149.858 35.1125 150.632 36.3009 151.359C37.1427 151.876 37.4052 152.973 36.8872 153.812C36.8679 153.843 36.8469 153.875 36.8259 153.904C36.2869 154.67 35.2351 154.894 34.4265 154.396V154.398Z" fill="#3E33EE"/>
<path opacity="0.3" d="M143.002 94.8115C143.207 94.5219 143.326 94.1678 143.327 93.7875C143.327 92.8229 143.306 91.8391 143.266 90.864C143.226 89.8802 142.393 89.1162 141.406 89.1563C140.419 89.1982 139.652 90.0267 139.692 91.0105C139.731 91.9368 139.75 92.87 139.75 93.7875C139.75 94.7713 140.55 95.5702 141.539 95.5702C142.144 95.5702 142.68 95.2702 143.004 94.8115H143.002Z" fill="#3E33EE"/>
</g>
<path d="M121.339 73.1797C121.243 72.8378 120.938 72.5936 120.583 72.5727L110.425 71.9831C108.131 67.835 105.156 64.0237 101.55 60.7303L103.365 50.7579C103.428 50.4073 103.262 50.0567 102.952 49.8823L92.3099 43.9271C91.9984 43.7527 91.6116 43.7945 91.3456 44.0317L83.7483 50.7684C79.051 49.4148 74.2364 48.8688 69.4884 49.0764L63.6937 40.7402C63.4907 40.4489 63.1232 40.3163 62.7802 40.4122L51.0299 43.7021C50.6869 43.798 50.4419 44.1015 50.4209 44.4556L49.8293 54.5798C45.6676 56.8666 41.8418 59.832 38.5393 63.4253L28.5339 61.6165C28.1822 61.5537 27.8304 61.7176 27.6554 62.0281L21.6805 72.6355C21.5055 72.946 21.5475 73.3315 21.7855 73.5966L28.5462 81.1688C27.1881 85.8506 26.6403 90.6493 26.8486 95.3817L18.4848 101.157C18.1925 101.36 18.0595 101.726 18.1557 102.068L21.4565 113.779C21.5527 114.121 21.8572 114.365 22.2125 114.386L32.3702 114.976C34.6646 119.124 37.6398 122.935 41.245 126.229L39.4301 136.201C39.3671 136.552 39.5317 136.902 39.8432 137.077L50.4856 143.032C50.7971 143.206 51.1839 143.164 51.4499 142.927L59.0472 136.191C63.7445 137.544 68.5591 138.09 73.3071 137.883L79.1018 146.219C79.3048 146.512 79.6723 146.643 80.0153 146.547L91.7656 143.257C92.1086 143.161 92.3536 142.857 92.3746 142.503L92.9662 132.379C97.1279 130.092 100.952 127.127 104.256 123.534L114.262 125.343C114.612 125.405 114.965 125.241 115.14 124.931L121.115 114.324C121.29 114.013 121.248 113.628 121.01 113.362L114.251 105.79C115.609 101.108 116.157 96.3097 115.949 91.5773L124.312 85.8018C124.606 85.5994 124.738 85.2331 124.642 84.8912L121.341 73.1797H121.339Z" fill="#3E33EE"/>
<path d="M80.2989 101.892C75.6436 106.784 67.8643 106.99 62.9552 102.35C60.5768 100.104 59.2205 97.0667 59.133 93.8013C59.0455 90.5377 60.239 87.4327 62.4949 85.0639C67.1502 80.171 74.9295 79.9652 79.8386 84.6051C84.3049 88.8265 84.8789 95.6259 81.4399 100.501C81.0987 100.985 80.7189 101.45 80.2989 101.892ZM61.9927 93.7263C62.0592 96.2294 63.1005 98.5564 64.9241 100.282C68.6868 103.838 74.653 103.681 78.2215 99.9292C81.7935 96.1789 81.6325 90.2324 77.868 86.6739C74.1052 83.1172 68.1391 83.2742 64.5706 87.0263C64.2468 87.3664 63.9528 87.7258 63.6868 88.1025C62.5334 89.7387 61.9384 91.6924 61.9927 93.7263Z" fill="#BDD0FB"/>
<path d="M95.7926 110.861C96.3824 110.024 96.9354 109.152 97.4447 108.246C97.6057 107.962 97.7615 107.674 97.912 107.385C98.6576 105.956 99.2876 104.47 99.7934 102.949C99.8004 102.928 99.8074 102.907 99.8144 102.886C99.8336 102.827 99.8529 102.769 99.8721 102.71C99.9089 102.595 99.9456 102.48 99.9806 102.364C100.075 102.061 99.9561 101.743 99.7094 101.571C99.6499 101.529 99.5816 101.496 99.5081 101.473C99.1301 101.356 98.7311 101.569 98.6138 101.944C98.0153 103.88 97.2015 105.766 96.1969 107.547C91.2143 116.398 82.1837 121.587 72.7016 122.117C67.4268 122.412 62.0119 121.264 57.0731 118.501C56.2068 118.016 55.372 117.493 54.5704 116.931C49.1765 113.153 45.2825 107.685 43.4764 101.274C41.4008 93.9096 42.3266 86.1786 46.0841 79.5083C53.8459 65.7332 71.3925 60.8246 85.2079 68.5555C86.0602 69.0317 86.8845 69.5498 87.6773 70.1063C91.1181 72.5169 93.9917 75.6515 96.0796 79.2937C96.1339 79.3879 96.2056 79.4647 96.2897 79.524C96.5084 79.6775 96.8077 79.7019 97.0562 79.5589C97.3992 79.3617 97.52 78.9291 97.3222 78.5855C95.1293 74.7602 92.1139 71.4703 88.5016 68.9393C87.6686 68.3549 86.8023 67.8124 85.9097 67.3118C71.4048 59.1954 52.9778 64.3587 44.8363 78.8105C40.8915 85.8141 39.9202 93.9287 42.0991 101.66C43.9962 108.391 48.0827 114.13 53.7461 118.098C54.5879 118.688 55.4647 119.237 56.373 119.747C63.3997 123.679 71.5413 124.648 79.2995 122.477C86.055 120.586 91.8146 116.509 95.7944 110.865L95.7926 110.861Z" fill="#BDD0FB"/>
<g opacity="0.3">
<path opacity="0.3" d="M192.84 19.7211C193.115 19.3321 193.113 18.7931 192.8 18.4023C192.215 17.6715 191.601 16.9476 190.973 16.2516C190.565 15.7998 189.867 15.7632 189.412 16.1696C188.957 16.5743 188.922 17.272 189.329 17.7238C189.928 18.3866 190.514 19.0757 191.071 19.7734C191.45 20.2496 192.145 20.3263 192.623 19.9478C192.707 19.8798 192.779 19.803 192.838 19.7193L192.84 19.7211Z" fill="#3E33EE"/>
<path opacity="0.3" d="M186.888 13.6979C186.487 14.1566 185.791 14.2072 185.328 13.8078C184.165 12.803 182.936 11.8454 181.676 10.9627C181.41 10.7761 181.142 10.5929 180.869 10.4115C180.363 10.0731 180.229 9.38759 180.568 8.88348C180.909 8.41948 181.596 8.24505 182.101 8.58345C182.385 8.77358 182.667 8.96546 182.945 9.16083C184.266 10.0853 185.554 11.0901 186.774 12.1437C187.206 12.5169 187.276 13.1519 186.954 13.6072C186.933 13.6368 186.909 13.6665 186.884 13.6961L186.888 13.6979ZM176.032 7.58219C174.368 6.73968 172.635 5.9931 170.883 5.36165C170.309 5.15407 170.011 4.52436 170.22 3.95222C170.426 3.38356 171.06 3.08354 171.634 3.29111C173.47 3.95222 175.285 4.73543 177.031 5.61807C177.575 5.89367 177.793 6.55652 177.516 7.09901C177.491 7.14611 177.463 7.19146 177.434 7.23507C177.122 7.67639 176.527 7.83338 176.03 7.58219H176.032ZM165.498 3.79348C163.68 3.38356 161.816 3.08528 159.959 2.90212C159.352 2.84282 158.909 2.30381 158.968 1.69853C159.028 1.0915 159.567 0.650178 160.176 0.709486C162.124 0.899619 164.079 1.21535 165.984 1.64271C166.58 1.77702 166.954 2.36661 166.819 2.95969C166.786 3.10447 166.727 3.23529 166.646 3.35042C166.396 3.70452 165.948 3.89291 165.498 3.79174V3.79348ZM154.351 2.70152C152.484 2.74862 150.604 2.91259 148.763 3.1882C148.16 3.2789 147.596 2.86375 147.507 2.26195C147.418 1.6619 147.831 1.10022 148.434 1.00951C150.365 0.719952 152.337 0.549006 154.294 0.49842C154.903 0.482721 155.41 0.96416 155.426 1.57119C155.431 1.8154 155.358 2.04391 155.227 2.23055C155.032 2.50616 154.714 2.68931 154.35 2.69978L154.351 2.70152ZM143.275 4.35516C141.478 4.85404 139.694 5.46805 137.972 6.17974C137.409 6.41349 136.763 6.1466 136.528 5.58492C136.294 5.02324 136.56 4.37784 137.125 4.14584C138.928 3.39926 140.799 2.7556 142.682 2.2323C143.27 2.07007 143.879 2.41196 144.042 2.99806C144.134 3.32949 144.064 3.66615 143.881 3.9278C143.739 4.1284 143.529 4.28364 143.273 4.35516H143.275ZM132.937 8.63752C131.316 9.55679 129.738 10.5842 128.247 11.6936C127.758 12.0564 127.065 11.957 126.701 11.4703C126.337 10.9837 126.437 10.2946 126.925 9.92834C128.49 8.76486 130.146 7.68686 131.845 6.72223C132.375 6.42221 133.049 6.60711 133.352 7.13564C133.571 7.51765 133.534 7.97642 133.296 8.31308C133.205 8.44216 133.086 8.55379 132.939 8.63752H132.937ZM123.968 15.3079C122.627 16.59 121.35 17.975 120.17 19.4228C119.785 19.8938 119.088 19.967 118.616 19.5833C118.142 19.2013 118.077 18.5122 118.455 18.0343C119.692 16.5185 121.031 15.0672 122.438 13.7205C122.879 13.3001 123.577 13.3141 124.001 13.7519C124.372 14.1374 124.405 14.7235 124.108 15.1474C124.067 15.205 124.022 15.259 123.968 15.3096V15.3079ZM112.76 29.4179C112.207 29.1615 111.969 28.5056 112.226 27.9544C112.94 26.4281 113.751 24.9157 114.633 23.4627C114.766 23.2412 114.9 23.0231 115.037 22.8033C115.345 22.2818 116.043 22.1318 116.559 22.4562C117.076 22.7789 117.232 23.4592 116.908 23.9738C116.778 24.1779 116.652 24.3837 116.524 24.5948C115.681 25.9868 114.907 27.4293 114.227 28.8841C114.199 28.9434 114.165 29.001 114.129 29.0516C113.826 29.4807 113.25 29.6446 112.758 29.4144L112.76 29.4179Z" fill="#3E33EE"/>
</g>
<g opacity="0.3">
<path opacity="0.3" d="M194.132 75.9343C193.005 77.4903 191.771 78.9904 190.469 80.3946C190.054 80.8412 189.356 80.8673 188.908 80.4557C188.459 80.0422 188.44 79.3463 188.846 78.8997C190.089 77.5618 191.265 76.1297 192.339 74.6453C192.697 74.1516 193.388 74.0417 193.881 74.3976C194.371 74.7517 194.485 75.432 194.139 75.9239L194.13 75.9361L194.132 75.9343ZM195.729 71.4932C195.196 71.1984 195.003 70.5286 195.299 69.9966C196.188 68.3953 196.988 66.7259 197.677 65.0304C197.907 64.4705 198.551 64.1949 199.118 64.4252C199.683 64.6537 199.954 65.2956 199.727 65.859C199.004 67.6347 198.166 69.3843 197.233 71.0624C197.214 71.0973 197.193 71.1304 197.17 71.1635C196.85 71.6171 196.232 71.7671 195.731 71.4915L195.729 71.4932ZM186.284 84.3804C184.812 85.6189 183.251 86.7789 181.646 87.8273C181.135 88.1604 180.451 88.0174 180.117 87.5098C179.782 87.0004 179.924 86.3219 180.435 85.9852C181.967 84.9857 183.454 83.8798 184.86 82.6989C185.327 82.3064 186.023 82.3657 186.415 82.8297C186.746 83.2204 186.757 83.7734 186.475 84.1729C186.422 84.2479 186.358 84.3194 186.282 84.3822L186.284 84.3804ZM200.213 61.1667C199.623 61.0097 199.275 60.4044 199.433 59.8166C199.909 58.0496 200.282 56.2372 200.539 54.4283C200.625 53.8265 201.185 53.4079 201.787 53.4916C202.39 53.5771 202.812 54.1335 202.726 54.7371C202.457 56.6349 202.067 58.538 201.568 60.3887C201.533 60.5161 201.477 60.633 201.405 60.7359C201.146 61.1039 200.675 61.2888 200.215 61.1667H200.213ZM176.625 90.6845C174.901 91.5322 173.107 92.284 171.293 92.9172C170.717 93.1178 170.087 92.8161 169.884 92.2422C169.683 91.6683 169.984 91.0386 170.561 90.838C172.292 90.2344 174.004 89.5175 175.647 88.7081C176.195 88.4395 176.856 88.6628 177.127 89.2088C177.313 89.5821 177.266 90.0112 177.04 90.3304C176.937 90.4752 176.797 90.599 176.625 90.6845ZM165.729 94.4959C163.848 94.9075 161.924 95.2093 160.013 95.3942C159.406 95.4535 158.867 95.0105 158.807 94.4052C158.748 93.7999 159.192 93.2609 159.801 93.2033C161.623 93.0271 163.457 92.7393 165.253 92.3468C165.848 92.216 166.438 92.5928 166.569 93.1859C166.637 93.4999 166.566 93.8121 166.394 94.0563C166.24 94.2743 166.009 94.4366 165.727 94.4976L165.729 94.4959ZM154.231 95.5983C152.304 95.5495 150.363 95.3838 148.464 95.1029C147.86 95.014 147.444 94.454 147.533 93.8522C147.622 93.2504 148.184 92.8353 148.788 92.9242C150.599 93.1928 152.449 93.3516 154.287 93.3952C154.898 93.4109 155.379 93.9168 155.363 94.5238C155.358 94.7488 155.284 94.9564 155.164 95.1291C154.959 95.4204 154.616 95.607 154.231 95.5983Z" fill="#3E33EE"/>
<path opacity="0.3" d="M202.989 49.5478C203.111 49.3734 203.185 49.1641 203.188 48.9356C203.206 47.9936 203.194 47.0464 203.155 46.1202C203.129 45.5132 202.614 45.0404 202.005 45.0649C201.396 45.091 200.922 45.6039 200.947 46.2109C200.983 47.0935 200.994 47.9971 200.978 48.8972C200.968 49.506 201.454 50.0066 202.063 50.0171C202.443 50.024 202.782 49.8374 202.987 49.5478H202.989Z" fill="#3E33EE"/>
</g>
<path d="M188.575 34.2812C188.51 34.0527 188.307 33.8887 188.069 33.8748L181.272 33.4805C179.737 30.7053 177.745 28.1533 175.334 25.9502L176.548 19.2763C176.59 19.0426 176.48 18.8071 176.272 18.6902L169.15 14.7062C168.942 14.5893 168.683 14.6172 168.505 14.7759L163.421 19.2851C160.277 18.3798 157.055 18.0134 153.879 18.153L150.001 12.5746C149.864 12.3792 149.619 12.2903 149.39 12.3548L141.527 14.5562C141.297 14.6207 141.133 14.823 141.119 15.0603L140.723 21.8353C137.939 23.3651 135.378 25.3502 133.168 27.7539L126.472 26.5433C126.238 26.5014 126.001 26.6113 125.884 26.8189L121.885 33.9166C121.768 34.1242 121.796 34.3824 121.955 34.5603L126.479 39.6276C125.571 42.7604 125.203 45.9718 125.343 49.1377L119.746 53.0032C119.55 53.1393 119.461 53.3835 119.526 53.612L121.735 61.4493C121.799 61.6778 122.002 61.8418 122.24 61.8557L129.038 62.25C130.573 65.0252 132.562 67.5772 134.976 69.7803L133.761 76.4541C133.719 76.6879 133.83 76.9234 134.038 77.0403L141.159 81.0261C141.367 81.1429 141.626 81.115 141.805 80.9563L146.889 76.4472C150.032 77.3525 153.254 77.7188 156.431 77.5793L160.309 83.1577C160.445 83.353 160.69 83.442 160.92 83.3774L168.783 81.1761C169.012 81.1115 169.177 80.9092 169.191 80.672L169.586 73.8969C172.371 72.3672 174.931 70.3821 177.141 67.9784L183.837 69.189C184.072 69.2308 184.308 69.1209 184.425 68.9134L188.424 61.8156C188.542 61.6081 188.514 61.3499 188.354 61.172L183.83 56.1047C184.739 52.9718 185.106 49.7605 184.966 46.5945L190.563 42.729C190.759 42.593 190.848 42.3488 190.784 42.1203L188.575 34.2829V34.2812Z" fill="#3E33EE"/>
<path d="M161.221 53.5945C159.684 55.2098 157.61 56.1308 155.379 56.1901C153.147 56.2494 151.026 55.4383 149.407 53.9067C146.065 50.7477 145.925 45.4728 149.094 42.1307C152.265 38.799 157.565 38.6594 160.907 41.8184C162.528 43.35 163.452 45.417 163.512 47.6411C163.559 49.4482 163.03 51.1838 162.006 52.6369C161.77 52.97 161.509 53.291 161.222 53.5927L161.221 53.5945ZM150.926 52.3089C152.118 53.4358 153.678 54.0323 155.321 53.9887C156.963 53.9451 158.489 53.2666 159.617 52.0804C160.746 50.8908 161.345 49.3383 161.301 47.7004C161.257 46.0642 160.577 44.5431 159.386 43.418C156.928 41.0928 153.028 41.1957 150.695 43.6465C150.485 43.868 150.295 44.1 150.123 44.3425C148.401 46.7863 148.688 50.1948 150.925 52.3089H150.926Z" fill="#BDD0FB"/>
<path d="M172.005 59.8374C172.407 59.267 172.782 58.6722 173.132 58.053C173.827 56.8215 174.395 55.5184 174.824 54.177L174.88 53.9956C175.025 53.5281 174.842 53.038 174.462 52.7693C174.369 52.7048 174.264 52.6525 174.15 52.6176C173.568 52.4379 172.952 52.7659 172.77 53.345C172.381 54.6009 171.854 55.8219 171.205 56.9715C171.17 57.036 171.133 57.0988 171.096 57.1599C169.535 59.8688 167.358 62.0876 164.758 63.6802C163.345 64.5454 161.809 65.2257 160.176 65.6984C160.162 65.7019 160.15 65.7054 160.136 65.7106C160.095 65.7211 160.055 65.7333 160.013 65.7455C155.23 67.0852 150.209 66.4869 145.876 64.0622C145.314 63.7482 144.775 63.4098 144.255 63.0453C140.763 60.5997 138.243 57.0587 137.072 52.9089C135.728 48.1416 136.329 43.1371 138.761 38.8198C141.194 34.5061 145.169 31.3854 149.952 30.0458C154.735 28.7061 159.756 29.3044 164.089 31.7291C164.64 32.0378 165.174 32.3727 165.689 32.7321C167.917 34.2933 169.777 36.3219 171.128 38.6803C171.212 38.8251 171.322 38.9454 171.452 39.0344C171.791 39.2716 172.252 39.3082 172.635 39.0902C173.163 38.7867 173.349 38.1169 173.046 37.5866C171.534 34.9474 169.453 32.678 166.961 30.9319C166.385 30.529 165.788 30.1539 165.172 29.8086C160.325 27.0961 154.707 26.428 149.355 27.9264C144.003 29.4248 139.556 32.9065 136.836 37.7418C134.115 42.5737 133.443 48.1713 134.948 53.5055C136.255 58.1489 139.076 62.1086 142.983 64.8472C143.562 65.2536 144.167 65.6339 144.794 65.9845C154.18 71.235 165.942 68.4318 172.003 59.8374H172.005Z" fill="#BDD0FB"/>
<path d="M338.961 37.2007V475.053C338.961 477.945 337.786 480.557 335.788 482.169C334.27 483.395 332.356 484.175 330.247 484.094L325.436 483.918C320.572 483.735 316.186 479.299 316.186 474.232V37.9438L338.961 37.2024V37.2007Z" fill="#FE9D35"/>
<path d="M348.119 21.493C348.119 28.882 344.353 35.4965 338.679 39.3864C335.487 41.5773 331.691 42.903 327.63 43.0234C325.614 43.0827 323.663 42.8455 321.825 42.3413C320.441 41.9646 319.121 41.4395 317.879 40.7819C317.565 40.611 317.25 40.4418 316.942 40.2516C311.141 36.7682 307.282 30.3315 307.282 22.8535C307.282 11.3705 316.377 1.73479 327.629 1.32138C338.924 0.906231 348.117 9.93146 348.117 21.4947L348.119 21.493Z" fill="#3E33EE"/>
<path d="M338.738 20.7359C338.738 26.48 335.81 31.6223 331.4 34.647C328.918 36.3512 325.968 37.3804 322.811 37.4746C321.242 37.5217 319.727 37.3368 318.297 36.9443C317.221 36.6512 316.195 36.2431 315.227 35.732C314.982 35.5994 314.739 35.4668 314.499 35.3186C309.987 32.6113 306.99 27.6068 306.99 21.7912C306.99 12.8636 314.06 5.3717 322.809 5.05074C331.591 4.72803 338.738 11.7455 338.738 20.7341V20.7359Z" fill="#837BF4"/>
<path d="M174.341 52.8489L176.09 53.749L209.221 33.5024L371.476 57.4087L394.171 59.9973L392.833 64.2203C392.651 64.6738 366.831 83.4273 366.831 83.4273L386.928 109.716L385.962 112.42C385.846 112.741 385.533 112.936 385.209 112.886L364.344 109.664L201.998 84.5977C201.543 84.528 201.125 84.3082 200.803 83.9715L174.695 56.7301C174.352 56.3725 174.173 55.8789 174.201 55.3713L174.343 52.8489H174.341Z" fill="#C070EB"/>
<path d="M211.052 31.7234L394.17 59.9957C394.339 60.0219 394.388 60.2522 394.247 60.3551L368.443 79.1695C368.093 79.4242 368 79.9214 368.233 80.2877L386.686 109.341C386.777 109.484 386.66 109.675 386.495 109.65L203.262 81.3587C202.739 81.2785 202.256 81.0308 201.879 80.6488L174.571 53.0812C174.455 52.9643 174.481 52.7637 174.623 52.68L209.4 32.0479C209.902 31.7496 210.483 31.6362 211.052 31.7234Z" fill="#891CC4"/>
<path d="M190.271 223.526L192.129 223.979L218.745 197.232L377.404 182.745L398.578 180.108C399.017 180.053 399.401 180.408 399.376 180.849L399.193 184.299C399.126 184.77 379.003 208.437 379.003 208.437L404.021 228.728L403.731 231.508C403.696 231.838 403.444 232.094 403.127 232.122L382.691 233.845L223.679 247.256C223.234 247.294 222.788 247.181 222.406 246.937L191.494 227.119C191.088 226.859 190.806 226.434 190.717 225.945L190.271 223.524V223.526Z" fill="#7D97F4"/>
<path d="M220.063 195.13L398.888 180.049C399.256 180.017 399.476 180.444 399.24 180.725L379.549 204.038C379.28 204.358 379.306 204.857 379.605 205.146L403.718 228.438C403.836 228.552 403.766 228.752 403.601 228.766L224.13 243.902C223.619 243.946 223.105 243.822 222.662 243.546L190.542 223.695C190.404 223.61 190.381 223.416 190.498 223.303L218.579 195.816C218.985 195.418 219.506 195.177 220.063 195.13Z" fill="#837BF4"/>
<path opacity="0.56" d="M325.809 200.481L226.134 208.247C225.765 208.276 225.49 208.598 225.518 208.965L225.877 213.542C225.906 213.91 226.229 214.185 226.598 214.156L326.273 206.39C326.642 206.361 326.918 206.04 326.889 205.672L326.53 201.095C326.501 200.727 326.178 200.452 325.809 200.481Z" fill="white"/>
<path opacity="0.56" d="M326.342 222.074L227.464 229.777C227.097 229.804 226.771 229.529 226.743 229.163L226.409 224.892C226.381 224.526 226.657 224.202 227.025 224.174L325.903 216.471C326.271 216.443 326.596 216.718 326.624 217.085L326.958 221.355C326.986 221.721 326.71 222.046 326.342 222.074Z" fill="white"/>
<path d="M478.944 134.193L477.017 134.957L443.616 113.406L269.786 126.699L245.581 128.077L246.568 131.852C246.722 132.302 272.538 152.106 272.538 152.106L249.064 176.279L249.862 178.948C249.957 179.265 250.273 179.471 250.62 179.443L272.985 177.591L447.007 163.182C447.494 163.142 447.956 162.956 448.327 162.65L478.247 137.919C478.639 137.595 478.87 137.129 478.882 136.637L478.942 134.193H478.944Z" fill="url(#paint1_linear_931_15091)"/>
<path d="M441.823 111.579L245.942 127.797C245.62 127.823 245.499 128.231 245.755 128.428L271.18 147.898C271.525 148.164 271.583 148.655 271.308 148.992L249.351 175.923C249.243 176.057 249.348 176.256 249.519 176.24L445.933 159.98C446.493 159.933 447.025 159.723 447.457 159.378L478.676 134.404C478.805 134.301 478.793 134.102 478.653 134.013L443.542 111.991C443.035 111.674 442.429 111.527 441.82 111.578L441.823 111.579Z" fill="url(#paint2_linear_931_15091)"/>
<path opacity="0.56" d="M438.623 124.491L341.269 132.076C340.9 132.105 340.624 132.427 340.653 132.794L341.026 137.554C341.055 137.922 341.377 138.197 341.747 138.168L439.101 130.583C439.47 130.554 439.746 130.232 439.717 129.865L439.343 125.105C439.315 124.737 438.992 124.462 438.623 124.491Z" fill="white"/>
<path opacity="0.56" d="M438.781 140.968L342.206 148.493C341.836 148.522 341.561 148.843 341.589 149.211L341.938 153.656C341.967 154.024 342.29 154.299 342.659 154.27L439.235 146.745C439.604 146.716 439.879 146.395 439.851 146.027L439.502 141.582C439.473 141.214 439.151 140.939 438.781 140.968Z" fill="white"/>
<path d="M334.41 77.1724C335.026 73.3934 332.451 69.8326 328.66 69.2192C324.868 68.6058 321.296 71.172 320.68 74.951C320.065 78.73 322.64 82.2907 326.431 82.9041C330.223 83.5176 333.795 80.9514 334.41 77.1724Z" fill="#3E33EE"/>
<path d="M328.007 79.2066C330.363 79.2066 332.273 77.3026 332.273 74.9539C332.273 72.6052 330.363 70.7012 328.007 70.7012C325.65 70.7012 323.74 72.6052 323.74 74.9539C323.74 77.3026 325.65 79.2066 328.007 79.2066Z" fill="#837BF4"/>
<path d="M332.936 147.982C333.786 144.394 331.556 140.799 327.956 139.952C324.356 139.105 320.748 141.327 319.899 144.916C319.049 148.504 321.279 152.099 324.879 152.946C328.479 153.793 332.086 151.571 332.936 147.982Z" fill="#3E33EE"/>
<path d="M326.888 149.495C329.159 149.495 330.999 147.66 330.999 145.397C330.999 143.134 329.159 141.3 326.888 141.3C324.618 141.3 322.777 143.134 322.777 145.397C322.777 147.66 324.618 149.495 326.888 149.495Z" fill="#837BF4"/>
<path d="M331.762 214.511C334.48 211.802 334.48 207.411 331.762 204.702C329.045 201.994 324.639 201.994 321.922 204.702C319.204 207.411 319.204 211.802 321.922 214.511C324.639 217.219 329.045 217.219 331.762 214.511Z" fill="url(#paint3_linear_931_15091)"/>
<path d="M331.461 209.467C332.003 207.18 330.581 204.887 328.286 204.347C325.99 203.807 323.691 205.224 323.149 207.512C322.607 209.8 324.029 212.092 326.324 212.632C328.619 213.172 330.919 211.755 331.461 209.467Z" fill="url(#paint4_linear_931_15091)"/>
<path opacity="0.56" d="M307.587 59.5365L218.5 45.5207C218.134 45.4631 217.791 45.712 217.733 46.0764L217.058 50.3374C217.001 50.7019 217.25 51.044 217.616 51.1015L306.703 65.1174C307.069 65.1749 307.412 64.9261 307.47 64.5616L308.145 60.3006C308.203 59.9362 307.953 59.5941 307.587 59.5365Z" fill="white"/>
<path opacity="0.56" d="M304.18 74.3888L215.804 60.485C215.439 60.4275 215.096 60.6763 215.038 61.0408L214.409 65.014C214.351 65.3785 214.6 65.7206 214.966 65.7781L303.341 79.6819C303.707 79.7394 304.05 79.4906 304.108 79.1262L304.737 75.1529C304.795 74.7885 304.545 74.4464 304.18 74.3888Z" fill="white"/>
<path d="M178.193 262.526C123.045 261.094 62.0416 275.858 62.0416 275.858C47.5174 355.737 53.9071 446.088 56.38 473.454C56.8438 478.579 60.6888 482.739 65.7659 483.67C94.263 488.891 124.316 485.723 139.435 483.43C145.317 482.536 150.02 478.111 151.269 472.315C161.259 425.967 189.8 323.716 189.8 323.716C216.782 320.639 239.055 313.1 257.435 303.028C243.644 286.785 237.267 266.221 234.528 254.075C214.968 259.93 195.204 262.969 178.195 262.526H178.193Z" fill="#3E33EE"/>
<path d="M341.89 183.101C336.535 176.527 331.505 176.811 331.505 176.811C323.061 210.906 278.38 240.945 234.528 254.073C237.267 266.219 243.644 286.781 257.435 303.026C330.387 263.051 341.89 183.101 341.89 183.101Z" fill="url(#paint5_linear_931_15091)"/>
<path d="M340.558 184.748C341.108 186.55 334.517 189.222 330.721 181.838C330.619 178.316 328.616 163.21 330.754 160.362C342.144 145.191 364.125 126.246 364.125 126.246C367.774 129.904 364.706 133.435 364.706 133.435L354.027 144.314C356.201 148.319 358.866 151.707 360.084 156.538C361.007 160.196 360.384 164.091 358.502 167.393C356.614 170.709 354.04 175.018 351.614 178.385C347.022 184.758 340.558 184.746 340.558 184.746V184.748Z" fill="url(#paint6_linear_931_15091)"/>
<path d="M349.333 151.395L339.619 159.445L336.516 167.523L345.016 177.104C345.016 177.104 348.059 161.048 350.238 157.587C352.419 154.126 351.322 152.432 349.332 151.396L349.333 151.395Z" fill="url(#paint7_linear_931_15091)"/>
<path d="M82.6877 329.289L62.0416 275.856C62.0416 275.856 10.1892 310.257 1.29333 354.411C11.0205 355.219 28.7106 357.91 45.965 366.801C49.9745 345.949 82.6877 329.289 82.6877 329.289Z" fill="#3E33EE"/>
<path d="M127.23 379.807C127.23 379.807 69.0753 411.838 49.824 383.831C45.8268 378.016 44.9132 372.266 45.965 366.801C28.7106 357.91 11.0205 355.219 1.29333 354.411C-1.38784 367.722 -0.173263 381.919 7.55 396.328C41.14 458.984 134.748 394.091 134.748 394.091L127.23 379.804V379.807Z" fill="url(#paint8_linear_931_15091)"/>
<path d="M122.753 217.364L104.718 267.782C104.419 268.618 104.757 269.549 105.53 269.985C110.289 272.666 127.45 280.451 148.347 267.522C150.524 266.176 152.019 263.96 152.37 261.431L158.473 217.704L122.751 217.364H122.753Z" fill="url(#paint9_linear_931_15091)"/>
<path d="M161.387 170.884C161.387 170.884 180.313 207.224 177.703 221.806C175.094 236.387 151.219 235.112 130.476 223.052L116.276 183.872L161.387 170.884Z" fill="url(#paint10_linear_931_15091)"/>
<path d="M131.581 203.889C132.431 203.522 132.755 202.491 132.254 201.713C130.732 199.348 127.884 194.525 127.001 190.316C127.001 190.316 123.558 188.071 135.867 185.259C148.177 182.445 166.536 178.072 170.486 167.688C174.336 157.564 164.719 131.922 148.79 152.129C148.184 152.898 147.011 152.903 146.42 152.122C143.874 148.752 137.158 141.741 127.702 145.863C118.854 149.72 117.8 156.144 117.89 159.389C117.916 160.343 117.053 161.077 116.113 160.889C111.666 159.999 100.985 159.171 95.8906 170.054C91.6956 179.016 94.3172 184.139 96.7254 186.653C97.5059 187.467 97.1472 188.795 96.0639 189.114C93.1272 189.979 89.3242 192.418 89.6374 199.257C90.0697 208.714 100.679 207.981 103.701 207.58C104.197 207.513 104.694 207.688 105.024 208.061C107.585 210.941 119.129 223.172 131.736 224.753C132.829 224.891 133.686 223.823 133.338 222.782L128.028 206.906C127.781 206.169 128.142 205.366 128.858 205.057L131.577 203.887L131.581 203.889Z" fill="url(#paint11_linear_931_15091)"/>
<path d="M133.754 206.155C133.754 206.155 120.123 196.641 119.045 204.534C117.967 212.425 131.292 216.097 137.937 213.214L133.756 206.155H133.754Z" fill="url(#paint12_linear_931_15091)"/>
<path d="M115.345 430.43L147.024 320.165C147.384 318.912 148.455 318 149.752 317.85C155.492 317.182 172.124 315.309 191.326 313.69C214.456 311.74 241.318 310.159 257.368 311.504C259.651 311.694 261.03 314.101 260.015 316.148C250.888 334.554 213.341 409.423 194.539 433.95C193.916 434.763 192.954 435.237 191.926 435.229L118.425 434.547C116.286 434.527 114.755 432.481 115.343 430.432L115.345 430.43Z" fill="url(#paint13_linear_931_15091)"/>
<path d="M122.998 403.789C122.998 403.789 118.584 385.703 120.366 379.286C122.146 372.868 125.595 364.619 137.09 366.453C148.587 368.286 162.146 373.113 162.146 373.113C162.146 373.113 161.462 381.47 152.724 378.775L158.142 382.952C158.142 382.952 157.367 389.644 149.988 386.07L155.027 391.611C155.027 391.611 151.857 397.108 146.427 393.582C140.998 390.057 138.394 405.967 122.996 403.789H122.998Z" fill="url(#paint14_linear_931_15091)"/>
<path d="M189.214 346.604C189.214 351.724 193.377 355.872 198.514 355.872C203.65 355.872 207.812 351.722 207.812 346.604C207.812 341.486 203.649 337.334 198.514 337.334C193.379 337.334 189.214 341.484 189.214 346.604Z" fill="#837BF4"/>
<path d="M150.608 352.714L157.057 330.907C157.848 328.229 160.009 326.218 162.694 325.658C182.91 321.454 238.241 320.563 238.798 320.554L238.761 318.091C236.479 318.126 182.635 318.996 162.19 323.247C158.613 323.99 155.737 326.659 154.686 330.209L148.236 352.017L150.608 352.714Z" fill="#BDD0FB"/>
<path d="M336.558 483.42C335.905 483.31 335.329 482.947 334.953 482.404C329.457 474.508 289.641 412.814 346.981 359.409C401.415 308.711 425.672 298.718 429.839 268.044C430.325 264.461 435.227 263.755 436.727 267.046C447.937 291.643 464.799 348.742 401.807 383.86C332.321 422.596 336.468 467.621 339.356 480.472C339.738 482.171 338.28 483.709 336.558 483.42Z" fill="#91B3FA"/>
<path d="M344.976 484.836C343.43 484.576 342.24 483.345 342.051 481.796C340.761 471.248 338.022 431.897 367.347 422.42C399.63 411.987 424.445 442.435 448.649 419.994C449.923 418.813 451.964 419.943 451.615 421.64C449.137 433.687 438.938 461.445 397.378 465.771C352.893 470.4 347.746 475.307 348.439 481.616C348.653 483.561 346.913 485.161 344.976 484.834V484.836Z" fill="#91B3FA"/>
<path opacity="0.47" d="M426.941 299.268C426.279 301.469 425.432 303.559 424.462 305.612C423.498 307.661 422.434 309.666 421.289 311.621C420.147 313.578 418.923 315.493 417.6 317.335C416.284 319.183 414.914 320.999 413.454 322.738C407.649 329.732 400.762 335.817 393.254 340.949C389.506 343.509 385.543 345.824 381.574 347.942C377.664 350.037 373.895 352.398 370.274 354.971C363.037 360.121 356.397 366.119 350.559 372.807C344.715 379.493 339.71 386.903 335.732 394.826C331.747 402.744 328.869 411.226 327.321 419.959C325.765 428.691 325.539 437.655 326.554 446.49C327.552 455.336 329.867 464.019 333.033 472.373C333.126 472.612 333.005 472.88 332.765 472.971C332.531 473.06 332.266 472.945 332.17 472.716C328.701 464.406 326.181 455.657 324.967 446.691C324.338 442.211 324.051 437.681 324.095 433.151C324.167 428.623 324.54 424.089 325.29 419.615C326.755 410.66 329.585 401.929 333.56 393.762C337.536 385.588 342.681 378.005 348.614 371.133C354.561 364.263 361.323 358.104 368.711 352.798C372.407 350.148 376.261 347.711 380.269 345.541L383.217 343.937C384.201 343.417 385.157 342.853 386.114 342.288L387.551 341.446L388.96 340.558L390.368 339.67L391.751 338.744C395.433 336.265 398.993 333.6 402.343 330.688C405.696 327.784 408.89 324.686 411.814 321.344C414.774 318.033 417.467 314.487 419.916 310.777C422.338 307.063 424.522 303.128 426.123 299.018L426.134 298.99C426.219 298.772 426.465 298.664 426.683 298.749C426.89 298.83 426.998 299.056 426.935 299.266L426.941 299.268Z" fill="white"/>
<path opacity="0.47" d="M343.64 477.651C343.714 477.283 343.702 476.927 343.698 476.566L343.703 475.486C343.712 474.768 343.731 474.047 343.756 473.328C343.81 471.891 343.894 470.454 344.01 469.02C344.242 466.152 344.592 463.293 345.081 460.453C346.073 454.786 347.575 449.161 350.063 443.919C351.304 441.302 352.82 438.799 354.659 436.535C356.49 434.266 358.7 432.282 361.201 430.742C363.711 429.221 366.518 428.171 369.414 427.684C370.86 427.435 372.326 427.294 373.791 427.288C375.256 427.259 376.719 427.362 378.17 427.529C379.628 427.707 381.035 427.962 382.46 428.201L386.718 428.951C389.553 429.465 392.383 430.009 395.207 430.571C400.859 431.688 406.485 432.912 412.133 433.948C414.958 434.459 417.789 434.918 420.633 435.202C423.474 435.48 426.335 435.581 429.148 435.256C431.958 434.953 434.711 434.159 437.195 432.818C439.687 431.489 441.888 429.65 443.845 427.592C443.988 427.44 444.228 427.433 444.38 427.576C444.531 427.717 444.538 427.955 444.398 428.106C442.426 430.229 440.182 432.153 437.604 433.566C435.037 434.993 432.166 435.855 429.261 436.202C426.351 436.547 423.423 436.448 420.539 436.174C417.653 435.893 414.797 435.438 411.956 434.932C406.277 433.906 400.65 432.697 395.004 431.599C389.367 430.5 383.69 429.441 378.039 428.602C376.634 428.429 375.218 428.317 373.805 428.338C372.391 428.333 370.981 428.459 369.591 428.689C366.807 429.136 364.12 430.121 361.703 431.56C359.295 433.018 357.151 434.911 355.359 437.102C353.558 439.286 352.06 441.719 350.819 444.278C348.324 449.4 346.777 454.954 345.739 460.567C345.226 463.379 344.85 466.217 344.591 469.065C344.461 470.49 344.365 471.917 344.297 473.346C344.263 474.061 344.239 474.775 344.223 475.49L344.207 476.562C344.204 476.918 344.195 477.279 344.284 477.628C344.33 477.804 344.223 477.982 344.046 478.028C343.87 478.073 343.691 477.967 343.646 477.79C343.633 477.742 343.632 477.691 343.64 477.646V477.651Z" fill="white"/>
</g>
<defs>
<linearGradient id="paint0_linear_931_15091" x1="-27.6553" y1="547.228" x2="327.728" y2="162.368" gradientUnits="userSpaceOnUse">
<stop stop-color="#DAE3FE"/>
<stop offset="1" stop-color="#E9EFFD"/>
</linearGradient>
<linearGradient id="paint1_linear_931_15091" x1="359.726" y1="-154.431" x2="360.891" y2="-22.3738" gradientUnits="userSpaceOnUse">
<stop stop-color="#4F52FF"/>
<stop offset="1" stop-color="#4042E2"/>
</linearGradient>
<linearGradient id="paint2_linear_931_15091" x1="480.765" y1="40.2637" x2="697.145" y2="-127.545" gradientUnits="userSpaceOnUse">
<stop stop-color="#4F52FF"/>
<stop offset="1" stop-color="#4042E2"/>
</linearGradient>
<linearGradient id="paint3_linear_931_15091" x1="331.255" y1="189.328" x2="311.139" y2="282.355" gradientUnits="userSpaceOnUse">
<stop stop-color="#E1473D"/>
<stop offset="1" stop-color="#E9605A"/>
</linearGradient>
<linearGradient id="paint4_linear_931_15091" x1="326.947" y1="192.63" x2="327.395" y2="213.094" gradientUnits="userSpaceOnUse">
<stop stop-color="#E1473D"/>
<stop offset="1" stop-color="#E9605A"/>
</linearGradient>
<linearGradient id="paint5_linear_931_15091" x1="234.59" y1="239.18" x2="341.261" y2="240.188" gradientUnits="userSpaceOnUse">
<stop stop-color="#FEBBBA"/>
<stop offset="1" stop-color="#FF928E"/>
</linearGradient>
<linearGradient id="paint6_linear_931_15091" x1="317.732" y1="223.278" x2="245.019" y2="385.105" gradientUnits="userSpaceOnUse">
<stop stop-color="#FEBBBA"/>
<stop offset="1" stop-color="#FF928E"/>
</linearGradient>
<linearGradient id="paint7_linear_931_15091" x1="341.42" y1="169.313" x2="371.581" y2="123.732" gradientUnits="userSpaceOnUse">
<stop stop-color="#FEBBBA"/>
<stop offset="1" stop-color="#FF928E"/>
</linearGradient>
<linearGradient id="paint8_linear_931_15091" x1="-0.265768" y1="388.586" x2="134.725" y2="389.863" gradientUnits="userSpaceOnUse">
<stop stop-color="#FEBBBA"/>
<stop offset="1" stop-color="#FF928E"/>
</linearGradient>
<linearGradient id="paint9_linear_931_15091" x1="104.754" y1="245.727" x2="158.127" y2="246.231" gradientUnits="userSpaceOnUse">
<stop stop-color="#FEBBBA"/>
<stop offset="1" stop-color="#FF928E"/>
</linearGradient>
<linearGradient id="paint10_linear_931_15091" x1="171.241" y1="212.657" x2="113.003" y2="176.255" gradientUnits="userSpaceOnUse">
<stop stop-color="#FEBBBA"/>
<stop offset="1" stop-color="#FF928E"/>
</linearGradient>
<linearGradient id="paint11_linear_931_15091" x1="82.1892" y1="138.529" x2="157.24" y2="199.168" gradientUnits="userSpaceOnUse">
<stop stop-color="#09005D"/>
<stop offset="1" stop-color="#1A0F91"/>
</linearGradient>
<linearGradient id="paint12_linear_931_15091" x1="155.701" y1="225.816" x2="103.302" y2="193.064" gradientUnits="userSpaceOnUse">
<stop stop-color="#FEBBBA"/>
<stop offset="1" stop-color="#FF928E"/>
</linearGradient>
<linearGradient id="paint13_linear_931_15091" x1="170.986" y1="303.253" x2="245.012" y2="612.72" gradientUnits="userSpaceOnUse">
<stop stop-color="#09005D"/>
<stop offset="1" stop-color="#1A0F91"/>
</linearGradient>
<linearGradient id="paint14_linear_931_15091" x1="119.942" y1="385.094" x2="162.148" y2="385.094" gradientUnits="userSpaceOnUse">
<stop stop-color="#FEBBBA"/>
<stop offset="1" stop-color="#FF928E"/>
</linearGradient>
<clipPath id="clip0_931_15091">
<rect width="486" height="486" fill="white" transform="translate(0 0.5)"/>
</clipPath>
</defs>
</svg>
